{
  "accessors": [
    {
      "bufferView": 2,
      "componentType": 5126,
      "count": 625,
      "max": [
        -2.3161437511444092,
        40.572120666503906,
        32.739643096923828
      ],
      "min": [
        -5.8842401504516602,
        -16.240623474121094,
        19.71369743347168
      ],
      "type": "VEC3"
    },
    {
      "bufferView": 2,
      "byteOffset": 7500,
      "componentType": 5126,
      "count": 625,
      "max": [
        1,
        0.99987208843231201,
        0.99995648860931396
      ],
      "min": [
        -1,
        -0.99624836444854736,
        -0.99997913837432861
      ],
      "type": "VEC3"
    },
    {
      "bufferView": 3,
      "componentType": 5126,
      "count": 625,
      "max": [
        1,
        0.99930214881896973,
        0.99947428703308105,
        1
      ],
      "min": [
        -1,
        -0.99923133850097656,
        -0.99999892711639404,
        1
      ],
      "type": "VEC4"
    },
    {
      "bufferView": 1,
      "componentType": 5126,
      "count": 625,
      "max": [
        0.9831206202507019,
        0.99500000476837158
      ],
      "min": [
        0.004999999888241291,
        0.004999999888241291
      ],
      "type": "VEC2"
    },
    {
      "bufferView": 0,
      "componentType": 5125,
      "count": 1239,
      "max": [
        624
      ],
      "min": [
        0
      ],
      "type": "SCALAR"
    }
  ],
  "asset": {
    "extras": {
      "author": "Krystian Zem (https://sketchfab.com/Banketo)",
      "license": "CC-BY-4.0 (http://creativecommons.org/licenses/by/4.0/)",
      "source": "https://sketchfab.com/models/1dd79bb9a3664ab6b12481fa88a76229",
      "title": "Lowpoly Stylized Scimitar"
    },
    "generator": "Sketchfab-3.28.5",
    "version": "2.0"
  },
  "bufferViews": [
    {
      "buffer": 0,
      "byteLength": 4956,
      "byteOffset": 0,
      "name": "floatBufferViews",
      "target": 34963
    },
    {
      "buffer": 0,
      "byteLength": 5000,
      "byteOffset": 4956,
      "byteStride": 8,
      "name": "floatBufferViews",
      "target": 34962
    },
    {
      "buffer": 0,
      "byteLength": 15000,
      "byteOffset": 9956,
      "byteStride": 12,
      "name": "floatBufferViews",
      "target": 34962
    },
    {
      "buffer": 0,
      "byteLength": 10000,
      "byteOffset": 24956,
      "byteStride": 16,
      "name": "floatBufferViews",
      "target": 34962
    }
  ],
  "buffers": [
    {
      "byteLength": 34956,
      "uri": "scene.bin"
    }
  ],
  "images": [
    {
      "uri": "textures/Object001_mtl_baseColor.jpeg"
    }
  ],
  "materials": [
    {
      "doubleSided": true,
      "emissiveFactor": [
        0,
        0,
        0
      ],
      "name": "Object001_mtl",
      "pbrMetallicRoughness": {
        "baseColorFactor": [
          1,
          1,
          1,
          1
        ],
        "baseColorTexture": {
          "index": 0,
          "texCoord": 0
        },
        "metallicFactor": 0.55000000000000004,
        "roughnessFactor": 0.56999999999999995
      }
    }
  ],
  "meshes": [
    {
      "name": "Object001_Object001_mtl_0",
      "primitives": [
        {
          "attributes": {
            "NORMAL": 1,
            "POSITION": 0,
            "TANGENT": 2,
            "TEXCOORD_0": 3
          },
          "indices": 4,
          "material": 0,
          "mode": 4
        }
      ]
    }
  ],
  "nodes": [
    {
      "children": [
        1
      ],
      "name": "RootNode (gltf orientation matrix)",
      "rotation": [
        -0.70710678118654746,
        -0,
        -0,
        0.70710678118654757
      ]
    },
    {
      "children": [
        2
      ],
      "name": "RootNode (model correction matrix)"
    },
    {
      "children": [
        3
      ],
      "matrix": [
        1,
        0,
        0,
        0,
        0,
        0,
        1,
        0,
        0,
        -1,
        0,
        0,
        0,
        0,
        0,
        1
      ],
      "name": "Scimitar.fbx"
    },
    {
      "children": [
        4
      ],
      "name": "RootNode"
    },
    {
      "children": [
        5
      ],
      "matrix": [
        1,
        0,
        0,
        0,
        0,
        2.2204460492503131e-16,
        -1,
        0,
        0,
        1,
        2.2204460492503131e-16,
        0,
        -4.1001920700073242,
        19.71369743347168,
        -12.165748596191406,
        1
      ],
      "name": "Object001"
    },
    {
      "children": [
        6
      ],
      "matrix": [
        1,
        0,
        -0,
        0,
        0,
        1,
        0,
        0,
        0,
        0,
        1,
        0,
        4.1001920700073242,
        -12.165748596191406,
        -19.71369743347168,
        1
      ],
      "name": ""
    },
    {
      "mesh": 0,
      "name": "Object001_Object001_mtl_0"
    }
  ],
  "samplers": [
    {
      "magFilter": 9729,
      "minFilter": 9987,
      "wrapS": 10497,
      "wrapT": 10497
    }
  ],
  "scene": 0,
  "scenes": [
    {
      "name": "OSG_Scene",
      "nodes": [
        0
      ]
    }
  ],
  "textures": [
    {
      "sampler": 0,
      "source": 0
    }
  ]
}

